<svg width="600" height="600" xmlns="http://www.w3.org/2000/svg">
 <!-- Created with Method Draw - http://github.com/duopixel/Method-Draw/ -->

 <g>
  <title>background</title>
  <rect fill="none" id="canvas_background" height="602" width="602" y="-1" x="-1"/>
  <g display="none" overflow="visible" y="0" x="0" height="100%" width="100%" id="canvasGrid">
   <rect fill="url(#gridpattern)" stroke-width="0" y="1" x="1" height="600" width="602"/>
  </g>
 </g>
 <g>
  <title>Layer 1</title>
  <g stroke="null" id="svg_10">
   <g id="svg_4" fill="#000000" transform="matrix(0.07187405316888673,0,0,-0.07187405316888673,-166.28146320283224,607.9280361350893) ">
    <path stroke="null" id="svg_5" d="m9509.07495,5868.58838c-115,-21 -180,-42 -276,-91c-163,-84 -282,-208 -364,-380c-69,-146 -121,-385 -88,-406c8,-5 134,-9 280,-9l265,0l12,63c15,81 63,177 109,218c67,59 137,84 233,84c70,0 95,-5 140,-26c75,-35 124,-80 155,-143c54,-111 51,-220 -11,-345c-32,-64 -62,-100 -206,-247c-194,-196 -224,-234 -283,-359c-61,-128 -76,-195 -82,-373l-6,-152l279,2l279,3l6,110c10,188 43,245 274,480c220,223 300,342 347,517c30,110 32,328 4,428c-69,249 -237,449 -465,552c-163,74 -421,106 -602,74z"/>
    <path stroke="null" id="svg_6" d="m2382.07495,5070.58838c4,-509 5,-525 27,-608c72,-263 239,-453 495,-559c117,-48 209,-62 406,-62c160,1 236,7 313,26l27,7l0,-386l0,-386l265,0l265,0l0,1245l0,1245l-265,0l-265,0l0,-610l0,-610l-27,-11c-120,-46 -333,-58 -440,-25c-109,33 -205,125 -240,229c-15,46 -18,109 -21,540l-3,487l-270,0l-270,0l3,-522z"/>
    <path stroke="null" id="svg_7" d="m4606.07495,5440.58838l-146,-152l0,-1070c0,-589 3,-1081 6,-1094l7,-23l606,4c530,3 615,6 680,21c386,90 598,338 618,721c20,409 -187,691 -593,806c-74,21 -102,23 -436,27l-358,3l0,225l0,224l573,0l572,0l153,153l152,152l0,78l0,77l-844,0l-844,0l-146,-152zm900,-1217c217,-18 330,-120 342,-307c8,-127 -41,-235 -134,-294c-80,-51 -151,-60 -453,-60l-271,0l0,335l0,335l208,0c114,-1 253,-5 308,-9z"/>
    <path stroke="null" id="svg_8" d="m6724.07495,5443.58838l-141,-148l-2,-874c-1,-481 1,-974 5,-1097l7,-224l263,3l264,3l0,1013l0,1013l425,0l425,0l0,-1015l0,-1015l265,0l265,0l0,1245l0,1245l-817,-1l-818,-1l-141,-147z"/>
    <path stroke="null" id="svg_9" d="m9567.07495,3382.58838c-95,-24 -193,-104 -237,-194c-32,-68 -39,-183 -15,-260c26,-83 96,-163 179,-206c65,-33 75,-35 165,-35c77,1 106,5 144,23c66,30 138,101 173,169c26,53 29,67 29,158c0,91 -3,105 -29,158c-59,115 -175,190 -301,194c-38,1 -87,-2 -108,-7z"/>
   </g>
  </g>
 </g>
</svg>